<mxfile host="65bd71144e">
    <diagram id="GNGjBNOSfVKtkJraWmQE" name="Pagina-1">
        <mxGraphModel dx="2974" dy="1775" grid="1" gridSize="12" guides="1" tooltips="1" connect="1" arrows="1" fold="1" page="1" pageScale="1" pageWidth="827" pageHeight="1169" math="0" shadow="0">
            <root>
                <mxCell id="0"/>
                <mxCell id="1" parent="0"/>
                <mxCell id="105" value="" style="edgeStyle=none;html=1;fontColor=#CE9178;startArrow=none;" parent="1" source="9" edge="1">
                    <mxGeometry relative="1" as="geometry">
                        <mxPoint x="-824" y="-396" as="targetPoint"/>
                    </mxGeometry>
                </mxCell>
                <mxCell id="2" value="&lt;div style=&quot;color: rgb(212, 212, 212); font-family: consolas, &amp;quot;courier new&amp;quot;, monospace; font-size: 14px; line-height: 19px;&quot;&gt;&lt;span style=&quot;color: #4fc1ff&quot;&gt;CATEGORIES&lt;/span&gt;&lt;/div&gt;" style="ellipse;whiteSpace=wrap;html=1;labelBackgroundColor=none;labelBorderColor=none;fillColor=#0050ef;fontColor=#ffffff;strokeColor=#001DBC;" parent="1" vertex="1">
                    <mxGeometry x="-884" y="-624" width="120" height="80" as="geometry"/>
                </mxCell>
                <mxCell id="3" value="&lt;font style=&quot;font-size: 18px&quot;&gt;/start&lt;/font&gt;" style="ellipse;whiteSpace=wrap;html=1;aspect=fixed;fillColor=#f0a30a;strokeColor=#BD7000;fontColor=#000000;" parent="1" vertex="1">
                    <mxGeometry x="-859" y="-936" width="66" height="66" as="geometry"/>
                </mxCell>
                <mxCell id="156" value="" style="edgeStyle=none;html=1;fontColor=#CE9178;entryX=0.788;entryY=0;entryDx=0;entryDy=0;entryPerimeter=0;" parent="1" source="6" target="62" edge="1">
                    <mxGeometry relative="1" as="geometry"/>
                </mxCell>
                <mxCell id="6" value="&lt;font style=&quot;font-size: 18px&quot;&gt;(Yes)&lt;/font&gt;" style="whiteSpace=wrap;html=1;fillColor=#bac8d3;strokeColor=#23445d;" parent="1" vertex="1">
                    <mxGeometry x="-800" y="480" width="120" height="60" as="geometry"/>
                </mxCell>
                <mxCell id="30" value="&lt;div style=&quot;background-color: rgb(30 , 30 , 30) ; font-family: &amp;#34;consolas&amp;#34; , &amp;#34;courier new&amp;#34; , monospace ; font-size: 14px ; line-height: 19px&quot;&gt;&lt;font color=&quot;#ce9178&quot;&gt;Hi! I'm Bot&lt;/font&gt;&lt;/div&gt;&lt;div style=&quot;background-color: rgb(30 , 30 , 30) ; font-family: &amp;#34;consolas&amp;#34; , &amp;#34;courier new&amp;#34; , monospace ; font-size: 14px ; line-height: 19px&quot;&gt;&lt;div style=&quot;font-family: &amp;#34;consolas&amp;#34; , &amp;#34;courier new&amp;#34; , monospace ; line-height: 19px&quot;&gt;&lt;font color=&quot;#ce9178&quot;&gt;Please select a category or /skip&lt;/font&gt;&lt;/div&gt;&lt;/div&gt;" style="text;html=1;align=center;verticalAlign=middle;resizable=0;points=[];autosize=1;strokeColor=none;fillColor=none;" parent="1" vertex="1">
                    <mxGeometry x="-962" y="-864" width="276" height="48" as="geometry"/>
                </mxCell>
                <mxCell id="31" value="&lt;div style=&quot;background-color: rgb(30 , 30 , 30) ; font-family: &amp;#34;consolas&amp;#34; , &amp;#34;courier new&amp;#34; , monospace ; font-weight: normal ; font-size: 14px ; line-height: 19px&quot;&gt;&lt;div&gt;&lt;font color=&quot;#ce9178&quot;&gt;&quot;I see! Now, input a keyword to search...&quot;&lt;/font&gt;&lt;/div&gt;&lt;/div&gt;" style="text;whiteSpace=wrap;html=1;" parent="1" vertex="1">
                    <mxGeometry x="-976" y="-516" width="348" height="36" as="geometry"/>
                </mxCell>
                <mxCell id="47" value="&lt;div style=&quot;color: rgb(212 , 212 , 212) ; font-family: &amp;#34;consolas&amp;#34; , &amp;#34;courier new&amp;#34; , monospace ; font-size: 14px ; line-height: 19px&quot;&gt;&lt;span style=&quot;color: rgb(79 , 193 , 255)&quot;&gt;CHOOSE&lt;/span&gt;&lt;/div&gt;" style="ellipse;whiteSpace=wrap;html=1;fillColor=#0050ef;fontColor=#ffffff;strokeColor=#001DBC;" parent="1" vertex="1">
                    <mxGeometry x="-884" y="-71" width="120" height="60" as="geometry"/>
                </mxCell>
                <mxCell id="150" value="" style="edgeStyle=none;html=1;fontColor=#CE9178;" parent="1" source="53" target="149" edge="1">
                    <mxGeometry relative="1" as="geometry"/>
                </mxCell>
                <mxCell id="151" value="" style="edgeStyle=none;html=1;fontColor=#CE9178;" parent="1" source="53" target="6" edge="1">
                    <mxGeometry relative="1" as="geometry"/>
                </mxCell>
                <mxCell id="53" value="&lt;div style=&quot;color: rgb(212 , 212 , 212) ; font-family: &amp;#34;consolas&amp;#34; , &amp;#34;courier new&amp;#34; , monospace ; font-size: 14px ; line-height: 19px&quot;&gt;&lt;div style=&quot;font-family: &amp;#34;consolas&amp;#34; , &amp;#34;courier new&amp;#34; , monospace ; line-height: 19px&quot;&gt;&lt;span style=&quot;color: rgb(79 , 193 , 255)&quot;&gt;CONFIRM&lt;/span&gt;&lt;/div&gt;&lt;/div&gt;" style="ellipse;whiteSpace=wrap;html=1;fillColor=#0050ef;fontColor=#ffffff;strokeColor=#001DBC;" parent="1" vertex="1">
                    <mxGeometry x="-884" y="332" width="120" height="60" as="geometry"/>
                </mxCell>
                <mxCell id="62" value="&lt;span style=&quot;font-size: 18px&quot;&gt;END&lt;/span&gt;" style="ellipse;whiteSpace=wrap;html=1;aspect=fixed;fillColor=#f8cecc;gradientColor=#ea6b66;strokeColor=#b85450;" parent="1" vertex="1">
                    <mxGeometry x="-859" y="660" width="66" height="66" as="geometry"/>
                </mxCell>
                <mxCell id="65" value="&lt;div style=&quot;background-color: rgb(30 , 30 , 30) ; font-family: &amp;#34;consolas&amp;#34; , &amp;#34;courier new&amp;#34; , monospace ; font-size: 14px ; line-height: 19px&quot;&gt;[ ALL, AUDIO, MUSIC, ..]&amp;nbsp;&lt;/div&gt;&lt;div style=&quot;color: rgb(240 , 240 , 240) ; background-color: rgb(30 , 30 , 30) ; font-family: &amp;#34;consolas&amp;#34; , &amp;#34;courier new&amp;#34; , monospace ; font-size: 14px ; line-height: 19px&quot;&gt;&lt;/div&gt;" style="text;html=1;align=center;verticalAlign=middle;resizable=0;points=[];autosize=1;strokeColor=none;fillColor=none;fontColor=#CE9178;" parent="1" vertex="1">
                    <mxGeometry x="-916" y="-816" width="216" height="24" as="geometry"/>
                </mxCell>
                <mxCell id="91" value="" style="edgeStyle=elbowEdgeStyle;elbow=horizontal;endArrow=classic;html=1;fontSize=18;startArrow=none;exitX=0;exitY=0.5;exitDx=0;exitDy=0;entryX=0.028;entryY=0.387;entryDx=0;entryDy=0;entryPerimeter=0;" parent="1" source="3" target="9" edge="1">
                    <mxGeometry width="50" height="50" relative="1" as="geometry">
                        <mxPoint x="-1237" y="-829" as="sourcePoint"/>
                        <mxPoint x="-891" y="-240" as="targetPoint"/>
                        <Array as="points">
                            <mxPoint x="-1023" y="-636"/>
                            <mxPoint x="-1043" y="-838"/>
                        </Array>
                    </mxGeometry>
                </mxCell>
                <mxCell id="93" value="&lt;font style=&quot;font-size: 18px&quot;&gt;/skip&lt;/font&gt;" style="ellipse;whiteSpace=wrap;html=1;aspect=fixed;fillColor=#f0a30a;strokeColor=#BD7000;fontColor=#000000;" parent="1" vertex="1">
                    <mxGeometry x="-1056" y="-756" width="80" height="80" as="geometry"/>
                </mxCell>
                <mxCell id="110" value="&lt;div style=&quot;color: rgb(212 , 212 , 212) ; background-color: rgb(30 , 30 , 30) ; font-family: &amp;#34;consolas&amp;#34; , &amp;#34;courier new&amp;#34; , monospace ; font-size: 14px ; line-height: 19px&quot;&gt;&lt;span style=&quot;color: #ce9178&quot;&gt;&quot;Ok! Now, input a keyword to search...&quot;&lt;/span&gt;&lt;/div&gt;" style="text;html=1;align=center;verticalAlign=middle;resizable=0;points=[];autosize=1;strokeColor=none;fillColor=none;fontColor=#CE9178;" parent="1" vertex="1">
                    <mxGeometry x="-1154" y="-660" width="324" height="24" as="geometry"/>
                </mxCell>
                <mxCell id="115" value="" style="curved=1;endArrow=classic;html=1;fontColor=#CE9178;exitX=0.411;exitY=0.041;exitDx=0;exitDy=0;entryX=0.038;entryY=0.767;entryDx=0;entryDy=0;exitPerimeter=0;entryPerimeter=0;startArrow=none;" parent="1" source="117" target="9" edge="1">
                    <mxGeometry width="50" height="50" relative="1" as="geometry">
                        <mxPoint x="-884" y="-360" as="sourcePoint"/>
                        <mxPoint x="-1035" y="-366" as="targetPoint"/>
                        <Array as="points">
                            <mxPoint x="-975" y="-384"/>
                        </Array>
                    </mxGeometry>
                </mxCell>
                <mxCell id="122" value="" style="edgeStyle=elbowEdgeStyle;elbow=horizontal;endArrow=classic;html=1;fontSize=18;startArrow=none;exitX=1;exitY=0.5;exitDx=0;exitDy=0;entryX=1;entryY=0.5;entryDx=0;entryDy=0;" parent="1" source="3" target="2" edge="1">
                    <mxGeometry width="50" height="50" relative="1" as="geometry">
                        <mxPoint x="-735.0000000000036" y="-888.0000000000005" as="sourcePoint"/>
                        <mxPoint x="-730.0000000000002" y="-654" as="targetPoint"/>
                        <Array as="points">
                            <mxPoint x="-603" y="-816"/>
                            <mxPoint x="-562" y="-786"/>
                            <mxPoint x="-1002" y="-1348"/>
                        </Array>
                    </mxGeometry>
                </mxCell>
                <mxCell id="123" value="&lt;font style=&quot;font-size: 18px&quot;&gt;(choice)&lt;/font&gt;" style="whiteSpace=wrap;html=1;fillColor=#bac8d3;strokeColor=#23445d;" parent="1" vertex="1">
                    <mxGeometry x="-663" y="-756" width="120" height="60" as="geometry"/>
                </mxCell>
                <mxCell id="130" value="" style="edgeStyle=none;html=1;fontColor=#CE9178;" parent="1" source="9" target="128" edge="1">
                    <mxGeometry relative="1" as="geometry"/>
                </mxCell>
                <mxCell id="9" value="&lt;div style=&quot;color: rgb(212 , 212 , 212) ; font-family: &amp;#34;consolas&amp;#34; , &amp;#34;courier new&amp;#34; , monospace ; font-size: 14px ; line-height: 19px&quot;&gt;&lt;span style=&quot;color: rgb(79 , 193 , 255)&quot;&gt;KEYWORD&lt;/span&gt;&lt;/div&gt;" style="ellipse;whiteSpace=wrap;html=1;fillColor=#0050ef;fontColor=#ffffff;strokeColor=#001DBC;" parent="1" vertex="1">
                    <mxGeometry x="-884" y="-444" width="120" height="60" as="geometry"/>
                </mxCell>
                <mxCell id="125" value="" style="edgeStyle=none;html=1;fontColor=#CE9178;endArrow=none;" parent="1" source="2" target="9" edge="1">
                    <mxGeometry relative="1" as="geometry">
                        <mxPoint x="-824.0000000000002" y="-544" as="sourcePoint"/>
                        <mxPoint x="-824.0000000000002" y="-396.00000000000045" as="targetPoint"/>
                    </mxGeometry>
                </mxCell>
                <mxCell id="117" value="&lt;span style=&quot;color: rgb(206, 145, 120); font-family: consolas, &amp;quot;courier new&amp;quot;, monospace; font-size: 14px; font-style: normal; font-weight: 400; letter-spacing: normal; text-align: left; text-indent: 0px; text-transform: none; word-spacing: 0px; background-color: rgb(30, 30, 30);&quot;&gt;&quot;No torrents found :-(&lt;/span&gt;&lt;font color=&quot;#d7ba7d&quot; style=&quot;font-family: consolas, &amp;quot;courier new&amp;quot;, monospace; font-size: 14px; font-style: normal; font-weight: 400; letter-spacing: normal; text-align: left; text-indent: 0px; text-transform: none; word-spacing: 0px; background-color: rgb(30, 30, 30);&quot;&gt;&quot;&lt;/font&gt;" style="text;whiteSpace=wrap;html=1;fontColor=#CE9178;" parent="1" vertex="1">
                    <mxGeometry x="-1114" y="-336" width="204" height="36" as="geometry"/>
                </mxCell>
                <mxCell id="131" value="" style="edgeStyle=none;html=1;fontColor=#CE9178;" parent="1" source="128" edge="1">
                    <mxGeometry relative="1" as="geometry">
                        <mxPoint x="-826" y="-72" as="targetPoint"/>
                    </mxGeometry>
                </mxCell>
                <mxCell id="128" value="&lt;font style=&quot;font-size: 18px&quot;&gt;(choice)&lt;/font&gt;" style="whiteSpace=wrap;html=1;fillColor=#bac8d3;strokeColor=#23445d;" parent="1" vertex="1">
                    <mxGeometry x="-884" y="-288" width="120" height="60" as="geometry"/>
                </mxCell>
                <mxCell id="129" value="" style="endArrow=classic;html=1;fontColor=#CE9178;" parent="1" edge="1">
                    <mxGeometry width="50" height="50" relative="1" as="geometry">
                        <mxPoint x="-891" y="-252" as="sourcePoint"/>
                        <mxPoint x="-1023" y="-300" as="targetPoint"/>
                        <Array as="points">
                            <mxPoint x="-951" y="-252"/>
                            <mxPoint x="-1023" y="-252"/>
                        </Array>
                    </mxGeometry>
                </mxCell>
                <mxCell id="132" value="&lt;div style=&quot;background-color: rgb(30 , 30 , 30) ; font-family: &amp;#34;consolas&amp;#34; , &amp;#34;courier new&amp;#34; , monospace ; font-size: 14px ; line-height: 19px&quot;&gt;&lt;span style=&quot;color: rgb(206 , 145 , 120)&quot;&gt;&quot;There were X t&lt;/span&gt;&lt;span style=&quot;color: rgb(206 , 145 , 120)&quot;&gt;orrents found.&quot;&lt;/span&gt;&lt;/div&gt;&lt;div style=&quot;background-color: rgb(30 , 30 , 30) ; font-family: &amp;#34;consolas&amp;#34; , &amp;#34;courier new&amp;#34; , monospace ; font-size: 14px ; line-height: 19px&quot;&gt;&lt;span style=&quot;color: rgb(206 , 145 , 120)&quot;&gt;[i] TorrentName&lt;/span&gt;&lt;/div&gt;" style="text;html=1;align=center;verticalAlign=middle;resizable=0;points=[];autosize=1;strokeColor=none;fillColor=none;fontColor=#CE9178;" parent="1" vertex="1">
                    <mxGeometry x="-952" y="-195" width="252" height="48" as="geometry"/>
                </mxCell>
                <mxCell id="133" value="&lt;div style=&quot;color: rgb(212 , 212 , 212) ; background-color: rgb(30 , 30 , 30) ; font-family: &amp;#34;consolas&amp;#34; , &amp;#34;courier new&amp;#34; , monospace ; font-size: 14px ; line-height: 19px&quot;&gt;&lt;span style=&quot;color: #ce9178&quot;&gt;&quot;OK! Write wich want to download.&quot;&lt;/span&gt;&lt;/div&gt;" style="text;html=1;align=center;verticalAlign=middle;resizable=0;points=[];autosize=1;strokeColor=none;fillColor=none;fontColor=#CE9178;" parent="1" vertex="1">
                    <mxGeometry x="-962" y="-132" width="276" height="24" as="geometry"/>
                </mxCell>
                <mxCell id="134" value="" style="curved=1;endArrow=classic;html=1;fontColor=#CE9178;entryX=0.038;entryY=0.767;entryDx=0;entryDy=0;entryPerimeter=0;startArrow=none;" parent="1" edge="1">
                    <mxGeometry width="50" height="50" relative="1" as="geometry">
                        <mxPoint x="-1011" y="12" as="sourcePoint"/>
                        <mxPoint x="-879.44" y="-23.999999999999545" as="targetPoint"/>
                        <Array as="points">
                            <mxPoint x="-975" y="-10.019999999999982"/>
                        </Array>
                    </mxGeometry>
                </mxCell>
                <mxCell id="135" value="" style="edgeStyle=none;html=1;fontColor=#CE9178;" parent="1" target="137" edge="1">
                    <mxGeometry relative="1" as="geometry">
                        <mxPoint x="-824.0000000000002" y="-10.019999999999982" as="sourcePoint"/>
                    </mxGeometry>
                </mxCell>
                <mxCell id="143" value="" style="edgeStyle=none;html=1;fontColor=#CE9178;entryX=0.5;entryY=0;entryDx=0;entryDy=0;startArrow=none;" parent="1" source="59" target="53" edge="1">
                    <mxGeometry relative="1" as="geometry">
                        <mxPoint x="-824.0000000000002" y="290" as="targetPoint"/>
                    </mxGeometry>
                </mxCell>
                <mxCell id="137" value="&lt;font style=&quot;font-size: 18px&quot;&gt;(choice)&lt;/font&gt;" style="whiteSpace=wrap;html=1;fillColor=#bac8d3;strokeColor=#23445d;" parent="1" vertex="1">
                    <mxGeometry x="-884" y="120" width="120" height="60" as="geometry"/>
                </mxCell>
                <mxCell id="139" value="&lt;div style=&quot;color: rgb(212 , 212 , 212) ; background-color: rgb(30 , 30 , 30) ; font-family: &amp;#34;consolas&amp;#34; , &amp;#34;courier new&amp;#34; , monospace ; font-size: 14px ; line-height: 19px&quot;&gt;&lt;span style=&quot;color: #ce9178&quot;&gt;&quot;Error ! Insert a list of numbers!&lt;/span&gt;&lt;/div&gt;" style="text;html=1;align=center;verticalAlign=middle;resizable=0;points=[];autosize=1;strokeColor=none;fillColor=none;fontColor=#CE9178;" parent="1" vertex="1">
                    <mxGeometry x="-1154" y="17" width="276" height="24" as="geometry"/>
                </mxCell>
                <mxCell id="140" value="&lt;div style=&quot;color: rgb(212 , 212 , 212) ; background-color: rgb(30 , 30 , 30) ; font-family: &amp;#34;consolas&amp;#34; , &amp;#34;courier new&amp;#34; , monospace ; font-size: 14px ; line-height: 19px&quot;&gt;&lt;span style=&quot;color: #ce9178&quot;&gt;&quot;Write wich want to download.&quot;&lt;/span&gt;&lt;/div&gt;" style="text;html=1;align=center;verticalAlign=middle;resizable=0;points=[];autosize=1;strokeColor=none;fillColor=none;fontColor=#CE9178;" parent="1" vertex="1">
                    <mxGeometry x="-1136" y="45" width="252" height="24" as="geometry"/>
                </mxCell>
                <mxCell id="141" value="" style="endArrow=classic;html=1;fontColor=#CE9178;" parent="1" edge="1">
                    <mxGeometry width="50" height="50" relative="1" as="geometry">
                        <mxPoint x="-891" y="156" as="sourcePoint"/>
                        <mxPoint x="-1023" y="73.98000000000002" as="targetPoint"/>
                        <Array as="points">
                            <mxPoint x="-1023" y="156"/>
                        </Array>
                    </mxGeometry>
                </mxCell>
                <mxCell id="59" value="&lt;span style=&quot;font-family: &amp;#34;consolas&amp;#34; , &amp;#34;courier new&amp;#34; , monospace ; font-size: 14px ; background-color: rgb(30 , 30 , 30)&quot;&gt;[i] - TorrentName - [url]&lt;/span&gt;" style="text;html=1;align=center;verticalAlign=middle;resizable=0;points=[];autosize=1;strokeColor=none;fillColor=none;fontColor=#CE9178;" parent="1" vertex="1">
                    <mxGeometry x="-932" y="228" width="216" height="24" as="geometry"/>
                </mxCell>
                <mxCell id="144" value="" style="edgeStyle=none;html=1;fontColor=#CE9178;entryX=0.5;entryY=0;entryDx=0;entryDy=0;endArrow=none;" parent="1" source="137" target="59" edge="1">
                    <mxGeometry relative="1" as="geometry">
                        <mxPoint x="-824.0000000000002" y="180" as="sourcePoint"/>
                        <mxPoint x="-824.0000000000002" y="332" as="targetPoint"/>
                    </mxGeometry>
                </mxCell>
                <mxCell id="149" value="&lt;span style=&quot;font-size: 18px&quot;&gt;(No)&lt;br&gt;&lt;/span&gt;" style="whiteSpace=wrap;html=1;fillColor=#bac8d3;strokeColor=#23445d;" parent="1" vertex="1">
                    <mxGeometry x="-972" y="480" width="120" height="60" as="geometry"/>
                </mxCell>
                <mxCell id="152" value="" style="edgeStyle=elbowEdgeStyle;elbow=horizontal;endArrow=classic;html=1;fontSize=18;startArrow=none;exitX=0;exitY=0.5;exitDx=0;exitDy=0;" parent="1" source="149" edge="1">
                    <mxGeometry width="50" height="50" relative="1" as="geometry">
                        <mxPoint x="-975" y="532.9413488051471" as="sourcePoint"/>
                        <mxPoint x="-891" y="-408" as="targetPoint"/>
                        <Array as="points">
                            <mxPoint x="-1179" y="60"/>
                            <mxPoint x="-1031" y="-826"/>
                        </Array>
                    </mxGeometry>
                </mxCell>
                <mxCell id="154" value="&lt;span style=&quot;color: rgb(206, 145, 120); font-family: consolas, &amp;quot;courier new&amp;quot;, monospace; font-size: 14px; font-style: normal; font-weight: 400; letter-spacing: normal; text-align: left; text-indent: 0px; text-transform: none; word-spacing: 0px; background-color: rgb(30, 30, 30); display: inline; float: none;&quot;&gt;&quot;Please confirm the selected torrent:&lt;/span&gt;" style="text;whiteSpace=wrap;html=1;fontColor=#CE9178;" parent="1" vertex="1">
                    <mxGeometry x="-975" y="252" width="312" height="36" as="geometry"/>
                </mxCell>
                <mxCell id="157" value="&lt;font style=&quot;font-size: 18px&quot;&gt;/cancel&lt;br&gt;&lt;/font&gt;" style="ellipse;whiteSpace=wrap;html=1;aspect=fixed;fillColor=#f0a30a;strokeColor=#BD7000;fontColor=#000000;" parent="1" vertex="1">
                    <mxGeometry x="-1299" y="-930" width="66" height="66" as="geometry"/>
                </mxCell>
                <mxCell id="158" value="" style="edgeStyle=elbowEdgeStyle;elbow=horizontal;endArrow=classic;html=1;fontSize=18;startArrow=none;" parent="1" source="157" edge="1">
                    <mxGeometry width="50" height="50" relative="1" as="geometry">
                        <mxPoint x="-846.999999999995" y="-891" as="sourcePoint"/>
                        <mxPoint x="-869" y="696" as="targetPoint"/>
                        <Array as="points">
                            <mxPoint x="-1263" y="312"/>
                            <mxPoint x="-1287" y="-636"/>
                            <mxPoint x="-1031" y="-826"/>
                        </Array>
                    </mxGeometry>
                </mxCell>
                <mxCell id="159" value="&lt;div style=&quot;color: rgb(212 , 212 , 212) ; background-color: rgb(30 , 30 , 30) ; font-family: &amp;#34;consolas&amp;#34; , &amp;#34;courier new&amp;#34; , monospace ; font-size: 14px ; line-height: 19px&quot;&gt;&lt;span style=&quot;color: #ce9178&quot;&gt;&quot;Bye! I hope we can talk again some day.&quot;&lt;/span&gt;&lt;/div&gt;" style="text;html=1;align=center;verticalAlign=middle;resizable=0;points=[];autosize=1;strokeColor=none;fillColor=none;fontColor=#CE9178;" parent="1" vertex="1">
                    <mxGeometry x="-1392" y="-804" width="336" height="24" as="geometry"/>
                </mxCell>
                <mxCell id="160" value="&lt;div style=&quot;color: rgb(212 , 212 , 212) ; background-color: rgb(30 , 30 , 30) ; font-family: &amp;#34;consolas&amp;#34; , &amp;#34;courier new&amp;#34; , monospace ; font-size: 14px ; line-height: 19px&quot;&gt;&lt;span style=&quot;color: #ce9178&quot;&gt;&quot;Ok! Let's start again!&amp;nbsp;&lt;/span&gt;&lt;/div&gt;&lt;div style=&quot;color: rgb(212 , 212 , 212) ; background-color: rgb(30 , 30 , 30) ; font-family: &amp;#34;consolas&amp;#34; , &amp;#34;courier new&amp;#34; , monospace ; font-size: 14px ; line-height: 19px&quot;&gt;&lt;span style=&quot;color: #ce9178&quot;&gt;Input a keyword to search...&quot;&lt;/span&gt;&lt;/div&gt;" style="text;html=1;align=center;verticalAlign=middle;resizable=0;points=[];autosize=1;strokeColor=none;fillColor=none;fontColor=#CE9178;" parent="1" vertex="1">
                    <mxGeometry x="-1251" y="432" width="240" height="48" as="geometry"/>
                </mxCell>
                <mxCell id="162" value="&lt;div style=&quot;color: rgb(212 , 212 , 212) ; background-color: rgb(30 , 30 , 30) ; font-family: &amp;#34;consolas&amp;#34; , &amp;#34;courier new&amp;#34; , monospace ; font-size: 14px ; line-height: 19px&quot;&gt;&lt;span style=&quot;color: #ce9178&quot;&gt;&quot;My job is done! I hope it was helpful.&lt;/span&gt;&lt;span style=&quot;color: #ce9178&quot;&gt;&quot;&lt;/span&gt;&lt;/div&gt;" style="text;html=1;align=center;verticalAlign=middle;resizable=0;points=[];autosize=1;strokeColor=none;fillColor=none;fontColor=#CE9178;" parent="1" vertex="1">
                    <mxGeometry x="-932" y="588" width="324" height="24" as="geometry"/>
                </mxCell>
            </root>
        </mxGraphModel>
    </diagram>
</mxfile>